<?xml version="1.0" encoding="UTF-8"?>
<svg width="50px" height="51px" viewBox="0 0 50 51" version="1.1" xmlns="http://www.w3.org/2000/svg" xmlns:xlink="http://www.w3.org/1999/xlink">
    <title>7C858B8A-06D5-4003-9DC6-FC348BEDB3C7</title>
    <defs>
        <path d="M25,0 C38.8071187,0 50,11.1928813 50,25 C50,38.8071187 38.8071187,50 25,50 C11.1928813,50 0,38.8071187 0,25 C0,11.1928813 11.1928813,0 25,0 Z M25,3.26086957 C12.9938098,3.26086957 3.26086957,12.9938098 3.26086957,25 C3.26086957,37.0061902 12.9938098,46.7391304 25,46.7391304 C37.0061902,46.7391304 46.7391304,37.0061902 46.7391304,25 C46.7391304,12.9938098 37.0061902,3.26086957 25,3.26086957 Z M25.8043478,13.0434783 C29.423913,13.0434783 32.1956522,14.4130435 34.0543478,16.3369565 L31.673913,18.9456522 C30.3043478,17.5434783 28.3804348,16.5652174 25.8043478,16.5652174 C22.25,16.5652174 19.3478261,18.7173913 18.1413043,21.7826087 L30.076087,21.7826087 L29.326087,23.576087 L17.6521739,23.576087 C17.5869565,24.0326087 17.5543478,24.5217391 17.5543478,25.0108696 C17.5543478,25.4673913 17.5869565,25.923913 17.6521739,26.3804348 L28.1521739,26.3804348 L27.4347826,28.173913 L18.1413043,28.173913 C19.3152174,31.2717391 22.2173913,33.4565217 25.8043478,33.4565217 C28.3804348,33.4565217 30.3043478,32.4782609 31.673913,31.076087 L34.0543478,33.6847826 C32.1956522,35.6086957 29.423913,36.9782609 25.8043478,36.9782609 C20.3586957,36.9782609 15.7282609,33.2934783 14.3913043,28.173913 L10.8695652,28.173913 L11.6195652,26.3804348 L14.0326087,26.3804348 C14,25.923913 13.9673913,25.4673913 13.9673913,25.0108696 C13.9673913,24.5217391 14,24.0326087 14.0652174,23.576087 L10.8695652,23.576087 L11.6195652,21.7826087 L14.3913043,21.7826087 C15.7934783,16.6956522 20.3586957,13.0434783 25.8043478,13.0434783 Z" id="path-1"></path>
    </defs>
    <g id="calculator-WF" stroke="none" stroke-width="1" fill="none" fill-rule="evenodd">
        <g id="calculator-1" transform="translate(-696.000000, -181.000000)">
            <g id="illustration" transform="translate(659.388775, 145.262423)">
                <g id="icon-/-download" transform="translate(36.611225, 36.611225)">
                    <mask id="mask-2" fill="white">
                        <use xlink:href="#path-1"></use>
                    </mask>
                    <use id="Combined-Shape" fill="#000000" fill-rule="nonzero" xlink:href="#path-1"></use>
                </g>
            </g>
        </g>
    </g>
</svg>