<?xml version="1.0" encoding="UTF-8"?>
<svg width="40px" height="40px" viewBox="0 0 40 40" version="1.1" xmlns="http://www.w3.org/2000/svg" xmlns:xlink="http://www.w3.org/1999/xlink">
    <title>19266B7D-D4AB-407D-B109-B9F3C53CEC20</title>
    <defs>
        <path d="M18.1248226,22.9513627 L18.1236972,16.5590351 L24.3382101,19.766453 L18.1248226,22.9513627 L18.1248226,22.9513627 Z M31.7704164,15.4516318 C31.7704164,15.4516318 31.5453344,13.883936 30.8565836,13.1940598 C29.9821402,12.2881049 29.0019083,12.2836033 28.5517444,12.230709 C25.3330724,12 20.5050643,12 20.5050643,12 L20.4949357,12 C20.4949357,12 15.6669276,12 12.4482556,12.230709 C11.9980917,12.2836033 11.0189852,12.2881049 10.1434164,13.1940598 C9.45466556,13.883936 9.2295836,15.4516318 9.2295836,15.4516318 C9.2295836,15.4516318 9,17.2928023 9,19.1339727 L9,20.8603513 C9,22.7015217 9.2295836,24.5426922 9.2295836,24.5426922 C9.2295836,24.5426922 9.45354015,26.110388 10.1434164,26.8002642 C11.0189852,27.7062191 12.1680286,27.6780839 12.68009,27.7726183 C14.520135,27.9470568 20.5005627,28.0010765 20.5005627,28.0010765 C20.5005627,28.0010765 25.3330724,27.994324 28.5517444,27.763615 C29.0007829,27.7107208 29.9810148,27.7062191 30.8565836,26.7991388 C31.5453344,26.1092626 31.7704164,24.5415668 31.7704164,24.5415668 C31.7704164,24.5415668 32,22.7015217 32,20.8592259 L32,19.1328473 C32,17.2928023 31.7704164,15.4505064 31.7704164,15.4505064 L31.7704164,15.4516318 Z" id="path-1"></path>
    </defs>
    <g id="Symbols" stroke="none" stroke-width="1" fill="none" fill-rule="evenodd">
        <g id="icon-/-youtube">
            <mask id="mask-2" fill="white">
                <use xlink:href="#path-1"></use>
            </mask>
            <use id="Shape" fill="#000000" xlink:href="#path-1"></use>
        </g>
    </g>
</svg>