<svg xmlns="http://www.w3.org/2000/svg" width="80" height="80" viewBox="0 0 80 80">
    <g fill="none" fill-rule="evenodd">
        <g fill="#000" fill-rule="nonzero">
            <g>
                <g>
                    <path d="M48.975 40.602c5.755 0 10.42 4.665 10.42 10.42V61.24H19.798V51.022c0-5.755 4.666-10.42 10.42-10.42h18.757zm0 3.126H30.218c-4.028 0-7.294 3.265-7.294 7.294v7.092H56.27v-7.092c0-4.029-3.266-7.294-7.294-7.294zm-9.378-25.775c5.365 0 9.715 4.35 9.715 9.716 0 5.365-4.35 9.715-9.715 9.715-5.366 0-9.716-4.35-9.716-9.715 0-5.366 4.35-9.716 9.716-9.716zm0 3.126c-3.64 0-6.59 2.95-6.59 6.59 0 3.639 2.95 6.589 6.59 6.589 3.639 0 6.589-2.95 6.589-6.59 0-3.639-2.95-6.589-6.59-6.589z" transform="translate(-679.000000, -84.000000) translate(659.388775, 64.262423) translate(20.403374, 20.403374)"/>
                </g>
            </g>
        </g>
    </g>
</svg>
