<?xml version="1.0" encoding="UTF-8"?>
<svg width="40px" height="40px" viewBox="0 0 40 40" version="1.1" xmlns="http://www.w3.org/2000/svg" xmlns:xlink="http://www.w3.org/1999/xlink">
    <title>57EC5471-810B-4E5C-9877-6EF8E46578E0</title>
    <defs>
        <path d="M11.4132937,5.58778212 C11.0949901,5.68261719 10.6278026,5.7624783 9.98092758,5.81738281 C10.0374008,2.98730469 11.5159722,0.995768229 14.4987847,0.321940104 C14.9762401,2.39832899 13.1588294,5.0187717 11.4132937,5.58778212 L11.4132937,5.58778212 Z M17.640749,9.21647135 C17.9693204,8.74728733 18.4929812,8.22319878 19.2117312,7.63422309 C18.0668651,6.25661892 16.7423115,5.42306858 14.8427579,5.42306858 C13.0253472,5.42306858 11.4954365,6.33148872 10.3762401,6.33148872 C9.42646329,6.33148872 7.71173115,5.52788628 6.03807044,5.52788628 C2.46485615,5.52788628 0.570436508,8.92697483 0.570436508,12.4658203 C0.570436508,16.39898 3.63539187,22.6780599 6.74141865,22.6780599 C7.96329365,22.6780599 9.06195437,21.7796224 10.5148562,21.7796224 C12.0190972,21.7796224 13.2255704,22.6381293 14.6374008,22.6381293 C16.9990079,22.6381293 19.1860615,18.7698568 19.8740079,16.66352 C17.4713294,15.9497613 15.5409722,12.1613498 17.640749,9.21647135 Z" id="path-1"></path>
    </defs>
    <g id="Symbols" stroke="none" stroke-width="1" fill="none" fill-rule="evenodd">
        <g id="Icons/Brands/apple" transform="translate(9.777778, 10.000000)">
            <mask id="mask-2" fill="white">
                <use xlink:href="#path-1"></use>
            </mask>
            <use id="apple" fill="#000000" fill-rule="nonzero" xlink:href="#path-1"></use>
        </g>
    </g>
</svg>