<svg xmlns="http://www.w3.org/2000/svg" width="40" height="41" viewBox="0 0 40 41">
    <g fill="none" fill-rule="evenodd">
        <g fill="#000">
            <g>
                <path d="M9.048 20.482l-.048.01c.154 6.498 5.292 11.642 11.492 11.505C26.7 32.143 31.846 26.996 32 20.492c-.162-6.477-5.278-11.607-11.46-11.489-.085-.002-.171-.003-.256-.003-6.08 0-11.08 5.08-11.236 11.482zm3.956-3.386c-.133-.515.156-1.045.647-1.185h.002c1.673-.411 3.385-.62 5.102-.62 3.256-.011 6.472.744 9.412 2.21.199.1.35.281.42.5.086.208.086.444 0 .65-.143.316-.432.53-.763.566-.128-.002-.253-.03-.369-.085-2.705-1.35-5.666-2.044-8.661-2.03-1.58-.002-3.154.188-4.692.565l-.019.04h-.21l-.065.002c-.364 0-.69-.245-.804-.613zm5.794 2.721c2.743 0 5.45.657 7.914 1.921.168.081.298.231.357.415.073.175.073.375 0 .55-.21.43-.477.706-.634.706-.115-.003-.227-.031-.33-.085-3.566-1.83-7.64-2.261-11.483-1.216h-.186c-.308.007-.586-.195-.687-.5-.105-.4.143-1.106.477-1.2l.01.02c1.49-.406 3.023-.61 4.562-.61zm-.033 4.207c2.296.001 4.557.585 6.591 1.701.159.137.26.335.277.55.069.224.069.466 0 .69-.108.191-.304.307-.515.305-.102.003-.202-.021-.292-.07-3.002-1.638-6.493-1.997-9.741-1h-.172c-.255.007-.486-.16-.568-.416-.105-.33.105-1.075.382-1.175l-.024.025c1.32-.403 2.687-.608 4.062-.61z" transform="translate(-568.000000, -355.000000) translate(568.000000, 355.347577)"/>
            </g>
        </g>
    </g>
</svg>
