<svg xmlns="http://www.w3.org/2000/svg" width="80" height="81" viewBox="0 0 80 81">
    <g fill="none" fill-rule="evenodd">
        <g fill="#000" fill-rule="nonzero">
            <g>
                <g>
                    <path d="M18.495 35.951l7.29-1.52c.42-.095.828.178.912.597.021.053.021.116.021.168v23.411h26.569v-23.41c0-.441.346-.788.776-.788.084 0 .157.011.22.032l7.227 1.51 1.804-8.36-14.79-5.863c-.262 1.91-1.153 3.62-2.454 4.91-1.563 1.552-3.713 2.506-6.073 2.506-2.36 0-4.5-.954-6.062-2.507-1.311-1.29-2.203-3-2.455-4.909l-14.789 5.864 1.804 8.36zm13.866-16.1c2.56.451 5.108.671 7.636.66 2.549 0 5.098-.22 7.657-.66.136-.031.294-.021.451.031l16.405 6.493c.346.147.555.514.472.892l-2.12 9.775c-.083.42-.492.682-.912.598l-7.1-1.49v23.233c0 .43-.357.787-.787.787h-28.12c-.43 0-.787-.357-.787-.787V36.151l-7.09 1.489c-.42.084-.84-.178-.924-.598l-2.119-9.744c-.094-.378.105-.776.472-.923l16.373-6.472c.095-.052.21-.073.325-.073.053 0 .116.01.168.021zm14.611 1.689c-2.318.346-4.636.535-6.975.535-2.328 0-4.646-.179-6.964-.535.21 1.552.933 2.937 2.003 3.996 1.27 1.27 3.031 2.045 4.961 2.045 1.94 0 3.703-.776 4.972-2.045 1.07-1.06 1.793-2.444 2.003-3.996z" transform="translate(-680.000000, -248.000000) translate(659.388775, 228.311824) translate(20.611225, 20.611225)"/>
                </g>
            </g>
        </g>
    </g>
</svg>
