<?xml version="1.0" encoding="UTF-8"?>
<svg width="40px" height="40px" viewBox="0 0 40 40" version="1.1" xmlns="http://www.w3.org/2000/svg" xmlns:xlink="http://www.w3.org/1999/xlink">
    <title>0CE41645-4BA9-4C16-AFE1-845402033A21</title>
    <defs>
        <path d="M21.1111111,12 C25.2551111,12 28.6737778,15.168 29.0737778,19.2088889 C29.3724444,19.1448889 29.6835556,19.1111111 30,19.1111111 C32.4515556,19.1111111 34.4444444,21.1057778 34.4444444,23.5555556 C34.4444444,26.0071111 32.4515556,28 30,28 L30,28 L21.1111111,28 C20.6204444,28 20.2222222,27.6017778 20.2222222,27.1111111 L20.2222222,27.1111111 L20.2222222,12.8888889 C20.2222222,12.3982222 20.6204444,12 21.1111111,12 Z M14,17.3333333 C14.4906667,17.3333333 14.8888889,17.7315556 14.8888889,18.2222222 L14.8888889,18.2222222 L14.8888889,27.1111111 C14.8888889,27.6017778 14.4906667,28 14,28 C13.5093333,28 13.1111111,27.6017778 13.1111111,27.1111111 L13.1111111,27.1111111 L13.1111111,18.2222222 C13.1111111,17.7315556 13.5093333,17.3333333 14,17.3333333 Z M10.4444444,17.3333333 C10.9351111,17.3333333 11.3333333,17.7315556 11.3333333,18.2222222 L11.3333333,18.2222222 L11.3333333,27.1111111 C11.3333333,27.6017778 10.9351111,28 10.4444444,28 C9.95377778,28 9.55555556,27.6017778 9.55555556,27.1111111 L9.55555556,27.1111111 L9.55555556,18.2222222 C9.55555556,17.7315556 9.95377778,17.3333333 10.4444444,17.3333333 Z M17.5555556,13.7777778 C18.0462222,13.7777778 18.4444444,14.176 18.4444444,14.6666667 L18.4444444,14.6666667 L18.4444444,27.1111111 C18.4444444,27.6017778 18.0462222,28 17.5555556,28 C17.0648889,28 16.6666667,27.6017778 16.6666667,27.1111111 L16.6666667,27.1111111 L16.6666667,14.6666667 C16.6666667,14.176 17.0648889,13.7777778 17.5555556,13.7777778 Z M6.88888889,20 C7.37955556,20 7.77777778,20.3982222 7.77777778,20.8888889 L7.77777778,20.8888889 L7.77777778,26.2222222 C7.77777778,26.7128889 7.37955556,27.1111111 6.88888889,27.1111111 C6.39822222,27.1111111 6,26.7128889 6,26.2222222 L6,26.2222222 L6,20.8888889 C6,20.3982222 6.39822222,20 6.88888889,20 Z" id="path-1"></path>
    </defs>
    <g id="Symbols" stroke="none" stroke-width="1" fill="none" fill-rule="evenodd">
        <g id="icon-/-soundcloud">
            <mask id="mask-2" fill="white">
                <use xlink:href="#path-1"></use>
            </mask>
            <use id="Combined-Shape" fill="#000000" fill-rule="nonzero" xlink:href="#path-1"></use>
        </g>
    </g>
</svg>