<svg xmlns="http://www.w3.org/2000/svg" width="80" height="81" viewBox="0 0 80 81">
    <g fill="none" fill-rule="evenodd">
        <g fill="#000">
            <g>
                <g>
                    <path d="M64.516 10.76l4.697 4.697-2.244 2.243 1.367 1.367-1.697 1.697-1.367-1.367-1.5 1.5 1.367 1.367-1.697 1.697-1.367-1.367-13.122 13.123c3.119 4.575 3.515 9.96.458 13.017-1.15 1.15-2.013 1.7-3.48 2.382l-.25.116c-1.055.492-1.586.828-2.293 1.534-.088.089-.16.15-.22.209l-.045.044c-.298.316-.376.764-1.301 5.076-.788 3.668-1.821 6.128-3.883 8.189-5.003 5.003-14.394 3.463-21.027-3.17-6.632-6.632-8.172-16.023-3.169-21.026 2.066-2.065 4.543-3.084 8.244-3.841 4.03-.825 4.71-.948 5.039-1.198l.048-.04.045-.042.044-.045c.052-.056.108-.12.185-.196.688-.688.999-1.22 1.437-2.307l.105-.26c.624-1.548 1.157-2.453 2.325-3.621 3.042-3.042 8.447-2.622 13.034.49L57.336 17.94l-1.203-1.203 1.697-1.697 1.203 1.202 1.5-1.499-1.203-1.203 1.697-1.697 1.203 1.202 2.286-2.285zM32.912 32.235c-.904.904-1.282 1.547-1.796 2.82l-.105.263c-.55 1.359-1.01 2.149-1.966 3.105-.679.679-1.616 1.097-2.967 1.44-.485.123-1 .232-1.749.376l-.92.174c-.37.07-.659.127-.941.185-3.28.67-5.372 1.531-7.027 3.187-3.923 3.922-2.625 11.84 3.169 17.633 5.793 5.793 13.71 7.091 17.632 3.169 1.66-1.66 2.534-3.74 3.233-6.995.06-.28.12-.567.193-.933l.182-.913c.15-.743.264-1.253.39-1.735.353-1.337.776-2.267 1.451-2.942.938-.937 1.69-1.412 2.976-2.012l.252-.117c1.234-.574 1.873-.98 2.795-1.903 2.044-2.043 1.804-5.986-.492-9.589l-4.476 4.477c.323 1.794-.21 3.712-1.596 5.1-2.25 2.249-5.897 2.249-8.147 0-2.25-2.25-2.25-5.898 0-8.148 1.363-1.363 3.24-1.9 5.007-1.611l4.506-4.507c-3.616-2.29-7.577-2.55-9.604-.524zM23.99 51.386l4.732 4.732-1.698 1.697-4.731-4.732 1.697-1.697zM34.7 40.574c-1.312 1.313-1.312 3.44 0 4.753 1.313 1.312 3.44 1.312 4.753 0 1.312-1.312 1.312-3.44 0-4.753-1.313-1.312-3.44-1.312-4.753 0zm9.752-6.355l-4.037 4.036c.258.184.504.391.735.622.212.213.404.437.576.672l4.031-4.03c-.195-.219-.4-.435-.611-.647-.228-.227-.46-.445-.694-.653zm20.064-20.065L46.15 32.52c.235.211.465.43.692.656.21.211.415.426.613.644l18.362-18.362-1.302-1.303z" transform="translate(-680.000000, -165.000000) translate(659.388775, 145.262423) translate(20.611225, 20.611225)"/>
                </g>
            </g>
        </g>
    </g>
</svg>
