<svg xmlns="http://www.w3.org/2000/svg" width="80" height="81" viewBox="0 0 80 81">
    <g fill="none" fill-rule="evenodd">
        <g fill="#000" fill-rule="nonzero">
            <g>
                <g>
                    <path d="M41 16c13.807 0 25 11.193 25 25S54.807 66 41 66 16 54.807 16 41s11.193-25 25-25zm0 3.26c-12.006 0-21.74 9.734-21.74 21.74 0 12.006 9.734 21.74 21.74 21.74 12.006 0 21.74-9.734 21.74-21.74 0-12.006-9.734-21.74-21.74-21.74zm.804 9.783c3.62 0 6.392 1.37 8.25 3.294l-2.38 2.609c-1.37-1.403-3.294-2.38-5.87-2.38-3.554 0-6.456 2.151-7.663 5.217h11.935l-.75 1.793H33.652c-.065.457-.098.946-.098 1.435 0 .456.033.913.098 1.37h10.5l-.717 1.793H34.14c1.174 3.098 4.076 5.283 7.663 5.283 2.576 0 4.5-.979 5.87-2.38l2.38 2.608c-1.858 1.924-4.63 3.293-8.25 3.293-5.445 0-10.076-3.685-11.413-8.804H26.87l.75-1.794h2.413c-.033-.456-.066-.913-.066-1.37 0-.488.033-.977.098-1.434H26.87l.75-1.793h2.771c1.402-5.087 5.968-8.74 11.413-8.74z" transform="translate(-680.000000, -165.000000) translate(659.388775, 145.262423) translate(20.611225, 20.611225)"/>
                </g>
            </g>
        </g>
    </g>
</svg>
